Simulation
nRows=36
nColumns=15
endheader
time  TH_x TH_y TH_z SC_y  SC_z  SC_x  AC_y  AC_z  AC_x  GH_y  GH_z  GH_yy  EL_x  PS_y
8.043  0.000000  0.000000  0.000000  -21.241944548499017  2.3923041768004234  -5.454109233240549  58.24900444729156  11.40108985337465  5.975472827684812  -10.992187580928087  6.748752787204828  64.68642267237716  17.293370513776384  120.000000
8.09662  0.000000  0.000000  0.000000  -20.79827731414866  1.8645523450667676  -7.206637704087427  57.92812140773339  11.339646527915573  6.3818287670903535  -5.6090286428163125  8.783290503013404  58.92456144709883  16.69561639520225  120.000000
8.15024  0.000000  0.000000  0.000000  -20.283453846391414  1.383610123276087  -9.049581488183978  57.64215747587093  11.467321016508082  6.985346399380165  -1.3337821931421499  11.05927416885846  54.036022730852515  15.945946923291848  120.000000
8.20386  0.000000  0.000000  0.000000  -19.7406535749377  0.9723302233914348  -10.948637223452433  57.47658747464246  11.797947339037275  7.792130924954803  2.2092602853681726  13.65711196167631  49.57845048537446  15.101861012852881  120.000000
8.257480000000001  0.000000  0.000000  0.000000  -19.241095557951947  0.6376462205124459  -12.857898071286142  57.4934064677296  12.336212343084203  8.807021037882377  5.064601740355698  16.668830359420674  45.45949601186371  14.237122809474657  120.000000
8.3111  0.000000  0.000000  0.000000  -18.83958800724429  0.3859266178083165  -14.742473850064071  57.760304702896384  13.079620002544218  10.018982722957633  7.200150137451743  20.15742582657137  41.71065369594171  13.43001552188769  120.000000
8.36472  0.000000  0.000000  0.000000  -18.568846435828764  0.21977702017454703  -16.591920016078443  58.327205537188696  14.025901006583005  11.419832254369878  8.5885348633892  24.12076749910404  38.39253458020928  12.74055220432651  120.000000
8.41834  0.000000  0.000000  0.000000  -18.454183037608107  0.13766494206076962  -18.41859186089691  59.2085387739613  15.188560005545884  12.993019267066865  9.301536336476348  28.493203117507548  35.49871696038888  12.184923942509185  120.000000
8.47196  0.000000  0.000000  0.000000  -18.506141992249354  0.13797367748544198  -20.235486242056833  60.374261788782725  16.58964686478619  14.693205195796546  9.509009643419601  33.15485120231956  32.96774186316041  11.74294721746014  120.000000
8.52558  0.000000  0.000000  0.000000  -18.700740709362858  0.22312007515698276  -22.02641830284804  61.75343578097565  18.236781384160047  16.441330057303045  9.450754554489295  37.95064543761659  30.696420296533454  11.385947227516942  120.000000
8.5792  0.000000  0.000000  0.000000  -18.975139175273533  0.3817118711790401  -23.729699133103054  63.229202265911034  20.112118939075252  18.139710111228073  9.365636545799292  42.717989887100394  28.560174342388745  11.094108860202867  120.000000
8.63282  0.000000  0.000000  0.000000  -19.255515982641064  0.5946683754731628  -25.24038648815839  64.65970710366729  22.16159900528856  19.669987368296464  9.419423178866115  47.305846885722055  26.447847098843443  10.856931439240334  120.000000
8.686440000000001  0.000000  0.000000  0.000000  -19.475349440988115  0.8549232251208233  -26.443883045442234  65.93346164504207  24.311376323048957  20.89130558589911  9.683070213192691  51.59068435176489  24.272209283912137  10.664659938734934  120.000000
8.74006  0.000000  0.000000  0.000000  -19.606966284714634  1.1494745522563763  -27.241235869926932  66.9686012690213  26.476430064837015  21.718116254328024  10.146178605846153  55.48503936174725  21.98249141746332  10.511078898468552  120.000000
8.79368  0.000000  0.000000  0.000000  -19.670520743977946  1.4566780243910598  -27.567656326908732  67.72041047407828  28.54565628407599  22.14618908572474  10.748199681065543  58.94734745150089  19.566305747538987  10.391943940421694  120.000000
8.8473  0.000000  0.000000  0.000000  -19.707743908224067  1.7545498750995525  -27.413523393537155  68.18945485110369  30.40353093123426  22.22946617188303  11.411072624436597  61.97321435784176  17.04510291231674  10.305655940567956  120.000000
8.90092  0.000000  0.000000  0.000000  -19.756572276239076  2.0261306354910076  -26.819593202182045  68.410050936805  31.956639027204673  22.061001073231473  12.063893754578864  64.58627950881657  14.466932374548893  10.254427081932002  120.000000
8.95454  0.000000  0.000000  0.000000  -19.836779687113435  2.2706248067407846  -25.863848921461994  68.44092375159642  33.15377340921152  21.739861540401492  12.646600124694084  66.82714897784287  11.898646352088596  10.238350817882768  120.000000
9.00816  0.000000  0.000000  0.000000  -19.95302682699905  2.5094716740327456  -24.653064901108536  68.3427317182493  33.99993209405458  21.368840883097832  13.114355726806497  68.73229894435867  9.417845057648538  10.253798747894312  120.000000
9.06178  0.000000  0.000000  0.000000  -20.101155092572473  2.782134223883189  -23.307927726564444  68.16531319465342  34.55207194061196  21.046079550470328  13.445679827330977  70.32896218740733  7.103719306372767  10.289940430156948  120.000000
9.115400000000001  0.000000  0.000000  0.000000  -20.27548204556171  3.107991880645679  -21.920192860491568  67.95020073784858  34.874610639693735  20.824020528852536  13.648712020943973  71.65012128390566  5.029449016002781  10.332009463075511  120.000000
9.16902  0.000000  0.000000  0.000000  -20.472604023674695  3.4626637385199084  -20.531199464050584  67.73771872491375  35.00015056853723  20.679189919919466  13.753707971282333  72.74475604317855  3.2536359589547628  10.36433772427326  120.000000
9.22264  0.000000  0.000000  0.000000  -20.688147895916956  3.8087384106784303  -19.17290533142911  67.55737070544771  34.9508316963363  20.56410690820773  13.794063440883276  73.65657121332389  1.8171233803083977  10.374323490124311  120.000000
9.27626  0.000000  0.000000  0.000000  -20.911235756584617  4.118441168599894  -17.894765710634754  67.42433168161769  34.75640878630863  20.447957687891357  13.799120251964242  74.4103327869626  0.7364730384233408  10.357618586863016  120.000000
9.32988  0.000000  0.000000  0.000000  -21.119727435746896  4.371307468980055  -16.756333654501546  67.34981981517763  34.447517797561865  20.311825299409783  13.795992432729705  75.01643000639726  0.003147341819530618  10.32132321385868  120.000000
9.3835  0.000000  0.000000  0.000000  -21.285634256245977  4.551413676858936  -15.819574279751448  67.34433965244942  34.052087233921256  20.147456339884876  13.809440272429825  75.47092558938958  -0.40780145049347866  10.279633967092675  120.000000
9.43712  0.000000  0.000000  0.000000  -21.383065731830342  4.647840348341324  -15.142792184173146  67.41454544938328  33.593872383304245  19.95474991046469  13.859876491869544  75.75689700740604  -0.5232698254572028  10.244772630631317  120.000000
9.49074  0.000000  0.000000  0.000000  -21.396355007163905  4.654115538005221  -14.774104227496144  67.55748597428513  33.09252992654211  19.74271926480416  13.963078297315715  75.84461517966736  -0.35991630484840975  10.219748252097428  120.000000
9.544360000000001  0.000000  0.000000  0.000000  -21.323550746497663  4.56828866831934  -14.747900431889036  67.75847622885355  32.56335159486316  19.52850707931254  14.129289272590828  75.69321634211468  0.08022321618178344  10.195300561429296  120.000000
9.59798  0.000000  0.000000  0.000000  -21.175609272695276  4.392402720913154  -15.082248454012303  67.99116858357733  32.01615270814022  19.336588958618417  14.36142311107697  75.25117473539486  0.8076944609860314  10.15406592642291  120.000000
9.6516  0.000000  0.000000  0.000000  -20.9709222575385  4.131778242550267  -15.77709361690998  68.21968426841194  31.454397137012453  19.197715411000107  14.652274618578803  74.45753739002912  1.8391599684842106  10.080853250194094  120.000000
9.70522  0.000000  0.000000  0.000000  -20.728638389150944  3.7967493968519697  -16.8107649064121  68.3999553697835  30.875584542590815  19.144661469557917  14.980616894578556  73.244635778455  3.1896784177380044  9.975038849991021  120.000000
9.75884  0.000000  0.000000  0.000000  -20.464845413316258  3.401545801440465  -18.13663145198585  68.47988169267319  30.275231868001413  19.2057971482809  15.307414453013651  71.54467792161996  4.865095657706794  9.855614138810232  120.000000
9.81246  0.000000  0.000000  0.000000  -20.192983889589744  2.9666210545145657  -19.682797736681124  68.40090944611741  29.651986207412026  19.389630814583928  15.577257719131545  69.29796594786193  6.862587925930862  9.758921451267161  120.000000
9.86608  0.000000  0.000000  0.000000  -19.932309844526902  2.5151160553973186  -21.36040613248745  68.09451002975597  29.012224744983968  19.67865874363104  15.727341896158396  66.45883600213863  9.1687563475803  9.729878559539124  120.000000
9.9197  0.000000  0.000000  0.000000  -19.70906785502022  2.069008424890322  -23.070989865069723  67.49810823766921  28.380693142995952  20.020628047286735  15.70404215033168  63.01438154290733  11.759655579529115  9.811560351767254  120.000000
